<?xml version="1.0" standalone="no"?>
<!DOCTYPE svg PUBLIC "-//W3C//DTD SVG 20010904//EN"
 "http://www.w3.org/TR/2001/REC-SVG-20010904/DTD/svg10.dtd">
<svg version="1.0" xmlns="http://www.w3.org/2000/svg"
 width="76.000000pt" height="75.000000pt" viewBox="0 0 76.000000 75.000000"
 preserveAspectRatio="xMidYMid meet">

<g transform="translate(0.000000,75.000000) scale(0.100000,-0.100000)"
fill="#000000" stroke="none">
<path d="M344 588 c-50 -24 -57 -96 -15 -139 37 -37 65 -37 102 0 44 44 35
116 -18 140 -29 13 -41 13 -69 -1z m81 -28 c23 -26 23 -74 0 -100 -39 -43
-108 -11 -108 50 0 61 69 93 108 50z"/>
<path d="M273 350 c-30 -12 -43 -41 -42 -92 l2 -43 6 49 c10 68 25 76 142 76
121 0 127 -5 142 -100 3 -14 5 -4 6 21 1 33 -5 54 -18 70 -18 22 -28 24 -118
26 -54 2 -108 -2 -120 -7z"/>
</g>
</svg>
